<svg xmlns="http://www.w3.org/2000/svg" xmlns:xlink="http://www.w3.org/1999/xlink" width="800" height="800" viewBox="0 0 24 24"><filter id="a" width="1.319" height="1.798" x="-.16" y="-.399" color-interpolation-filters="sRGB"><feGaussianBlur stdDeviation="1.33"/></filter><g><path d="m300.84375 908.875c-.35929.0633-.67275.33918-.78125.6875l-.625 1.8125h-10.4375c-.52358.00005-.99995.47642-1 1v1c.00005.52358.47642.99995 1 1h10.4375l.625 1.8125c.17584.53611.8642.83335 1.375.59375l6-3c.36721-.17625.60257-.59466.5625-1 .001-.0312.001-.0625 0-.0937-.0597-.31022-.27572-.58621-.5625-.71875l-6-3c-.1822-.0907-.39248-.12385-.59375-.0937z" filter="url(#a)" opacity=".2" transform="matrix(.90944794 0 0 .90944794 -259.0175 -817.2446)"/><path d="m308 911.67377a1.0001 1.0001 0 0 0 -.5625-.71875l-6-3a1.0001 1.0001 0 0 0 -1.375.59375l-.625 1.8125h-10.4375a1.0001 1.0001 0 0 0 -1 1v1a1.0001 1.0001 0 0 0 1 1h10.4375l.625 1.8125a1.0001 1.0001 0 0 0 1.375.59375l6-3a1.0001 1.0001 0 0 0 .5625-1 1.0001 1.0001 0 0 0 0-.0937z" transform="matrix(.90944794 0 0 .90944794 -259.0175 -817.2446)"/><path fill="#fefefe" d="m307 911.86127-6-3-.84375 2.5h-11.15625v1h11.15625l.84375 2.5z" transform="matrix(.90944794 0 0 .90944794 -259.0175 -817.2446)"/></g></svg>